<?xml version="1.0" standalone="no"?>
<!DOCTYPE svg PUBLIC "-//W3C//DTD SVG 20010904//EN"
 "http://www.w3.org/TR/2001/REC-SVG-20010904/DTD/svg10.dtd">
<svg version="1.0" xmlns="http://www.w3.org/2000/svg"
 width="241.000000pt" height="136.000000pt" viewBox="0 0 241.000000 136.000000"
 preserveAspectRatio="xMidYMid meet">

<g transform="translate(0.000000,136.000000) scale(0.100000,-0.100000)"
fill="#000000" stroke="none">
<path d="M270 1011 c0 -14 -5 -18 -19 -14 -21 5 -31 -19 -31 -83 0 -33 5 -44
30 -62 35 -26 68 -89 138 -267 72 -179 128 -249 215 -269 23 -6 30 -3 34 14 4
15 11 18 29 14 23 -6 24 -4 24 40 0 42 -2 46 -25 46 -14 0 -25 3 -25 8 0 4
-10 12 -22 17 -20 9 -24 20 -29 85 -11 120 -106 345 -181 426 -52 57 -138 85
-138 45z"/>
<path d="M690 1015 c0 -9 -9 -15 -25 -15 l-25 0 0 -275 0 -275 65 0 c51 0 65
3 65 15 0 8 7 15 15 15 13 0 15 27 15 180 0 113 4 180 10 180 6 0 10 38 10 95
l0 95 -65 0 c-51 0 -65 -3 -65 -15z"/>
<path d="M1040 1011 c0 -14 -5 -18 -19 -14 -21 5 -31 -19 -31 -83 0 -33 5 -44
30 -62 35 -26 68 -89 138 -267 72 -179 128 -249 215 -269 23 -6 30 -3 34 14 4
15 11 18 29 14 23 -6 24 -4 24 40 0 42 -2 46 -25 46 -14 0 -25 3 -25 8 0 4
-10 12 -22 17 -20 9 -24 20 -29 85 -11 120 -106 345 -181 426 -52 57 -138 85
-138 45z"/>
<path d="M1460 1015 c0 -9 -9 -15 -25 -15 l-25 0 0 -275 0 -275 65 0 c51 0 65
3 65 15 0 8 8 15 18 15 15 0 17 15 18 158 1 86 5 210 9 275 l8 117 -67 0 c-52
0 -66 -3 -66 -15z"/>
<path d="M1768 992 c-52 -27 -82 -51 -103 -81 l-30 -43 0 -212 0 -213 28 -40
c15 -22 46 -50 70 -64 40 -23 51 -24 245 -27 178 -3 202 -2 202 12 0 10 9 16
25 16 23 0 25 4 25 45 0 41 -2 45 -25 45 -14 0 -25 5 -25 10 0 6 -11 10 -25
10 -16 0 -25 6 -25 15 0 13 -22 15 -140 15 -188 0 -180 -9 -180 201 0 117 -3
159 -12 162 -7 3 -1 10 15 16 18 7 104 11 227 11 167 0 199 2 204 15 3 8 17
15 31 15 24 0 25 2 25 65 l0 65 -229 0 -230 0 -73 -38z"/>
<path d="M140 875 c0 -9 -9 -15 -25 -15 l-25 0 0 -275 0 -275 65 0 c51 0 65 3
65 15 0 9 9 15 25 15 l25 0 0 198 c0 192 -1 198 -25 237 -13 22 -25 50 -25 63
0 17 -6 22 -25 22 -16 0 -25 6 -25 15 0 8 -7 15 -15 15 -8 0 -15 -7 -15 -15z"/>
<path d="M910 875 c0 -9 -9 -15 -25 -15 l-25 0 0 -275 0 -275 65 0 c51 0 65 3
65 15 0 9 9 15 25 15 l25 0 0 198 c0 192 -1 198 -25 237 -13 22 -25 50 -25 63
0 17 -6 22 -25 22 -16 0 -25 6 -25 15 0 8 -7 15 -15 15 -8 0 -15 -7 -15 -15z"/>
<path d="M1950 735 c0 -9 -9 -15 -25 -15 -24 0 -25 -2 -25 -65 l0 -65 140 0
140 0 0 -70 0 -70 65 0 c51 0 65 3 65 15 0 9 9 15 25 15 l25 0 0 135 0 135
-205 0 c-176 0 -205 -2 -205 -15z"/>
</g>
</svg>
